<svg width="1200" height="292" viewBox="0 0 100% 100%" fill="none" xmlns="http://www.w3.org/2000/svg">
<rect width="1200" height="292" rx="6" fill="#D9D9D9" fill-opacity="0.5"/>
<path d="M504.334 150V141.516H509.479V142.453H505.389V145.289H509.209V146.215H505.389V149.062H509.537V150H504.334ZM512.021 146.18V150H511.014V143.637H511.986V144.633H512.068C512.373 143.988 512.959 143.555 513.932 143.555C515.221 143.555 516.076 144.34 516.076 145.957V150H515.068V146.027C515.068 145.043 514.529 144.457 513.627 144.457C512.701 144.457 512.021 145.078 512.021 146.18ZM517.693 150V143.637H518.666V144.609H518.736C518.971 143.965 519.627 143.531 520.377 143.531C520.529 143.531 520.787 143.543 520.904 143.555V144.574C520.834 144.551 520.553 144.504 520.295 144.504C519.381 144.504 518.701 145.137 518.701 145.992V150H517.693ZM524.279 150.129C522.545 150.129 521.373 148.828 521.373 146.848C521.373 144.867 522.545 143.555 524.279 143.555C526.002 143.555 527.162 144.867 527.162 146.848C527.162 148.828 526.002 150.129 524.279 150.129ZM524.279 149.238C525.557 149.238 526.154 148.113 526.154 146.848C526.154 145.582 525.557 144.445 524.279 144.445C522.979 144.445 522.381 145.582 522.381 146.848C522.381 148.113 522.979 149.238 524.279 149.238ZM529.494 141.516V150H528.486V141.516H529.494ZM532.107 141.516V150H531.1V141.516H532.107ZM537.732 146.18V150H536.725V143.637H537.697V144.633H537.779C538.084 143.988 538.67 143.555 539.643 143.555C540.932 143.555 541.787 144.34 541.787 145.957V150H540.779V146.027C540.779 145.043 540.24 144.457 539.338 144.457C538.412 144.457 537.732 145.078 537.732 146.18ZM546.006 150.129C544.271 150.129 543.1 148.828 543.1 146.848C543.1 144.867 544.271 143.555 546.006 143.555C547.729 143.555 548.889 144.867 548.889 146.848C548.889 148.828 547.729 150.129 546.006 150.129ZM546.006 149.238C547.283 149.238 547.881 148.113 547.881 146.848C547.881 145.582 547.283 144.445 546.006 144.445C544.705 144.445 544.107 145.582 544.107 146.848C544.107 148.113 544.705 149.238 546.006 149.238ZM551.432 150L549.498 143.637H550.564L551.924 148.488H551.982L553.33 143.637H554.408L555.732 148.465H555.803L557.162 143.637H558.217L556.283 150H555.287L553.904 145.148H553.811L552.439 150H551.432ZM562.037 148.195C562.037 146.73 563.326 146.402 564.428 146.32C564.832 146.291 565.863 146.238 566.15 146.227V145.711C566.15 144.902 565.67 144.434 564.709 144.434C563.9 144.434 563.42 144.809 563.279 145.289H562.225C562.354 144.27 563.35 143.555 564.756 143.555C565.588 143.555 567.146 143.801 567.146 145.805V150H566.15V149.133H566.104C565.893 149.566 565.307 150.152 564.205 150.152C562.998 150.152 562.037 149.438 562.037 148.195ZM563.045 148.242C563.045 148.91 563.607 149.25 564.381 149.25C565.518 149.25 566.15 148.488 566.15 147.691V147.047L564.545 147.164C563.631 147.223 563.045 147.551 563.045 148.242ZM569.771 146.18V150H568.764V143.637H569.736V144.633H569.818C570.123 143.988 570.709 143.555 571.682 143.555C572.971 143.555 573.826 144.34 573.826 145.957V150H572.818V146.027C572.818 145.043 572.279 144.457 571.377 144.457C570.451 144.457 569.771 145.078 569.771 146.18ZM577.846 150.129C576.264 150.129 575.139 148.852 575.139 146.836C575.139 144.82 576.264 143.555 577.857 143.555C579.088 143.555 579.486 144.305 579.697 144.645H579.768V141.516H580.787V150H579.803V149.027H579.697C579.475 149.379 579.064 150.129 577.846 150.129ZM577.986 149.227C579.146 149.227 579.803 148.242 579.803 146.812C579.803 145.406 579.17 144.457 577.986 144.457C576.768 144.457 576.158 145.488 576.158 146.812C576.158 148.172 576.779 149.227 577.986 149.227ZM589.564 147.387V143.637H590.561V150H589.564V148.922H589.494C589.189 149.566 588.568 150.082 587.607 150.082C586.4 150.082 585.545 149.297 585.545 147.68V143.637H586.553V147.609C586.553 148.523 587.127 149.109 587.936 149.109C588.65 149.109 589.564 148.57 589.564 147.387ZM593.186 146.18V150H592.178V143.637H593.15V144.633H593.232C593.537 143.988 594.123 143.555 595.096 143.555C596.385 143.555 597.24 144.34 597.24 145.957V150H596.232V146.027C596.232 145.043 595.693 144.457 594.791 144.457C593.865 144.457 593.186 145.078 593.186 146.18ZM599.865 141.516V150H598.857V141.516H599.865ZM604.072 150.129C602.338 150.129 601.166 148.828 601.166 146.848C601.166 144.867 602.338 143.555 604.072 143.555C605.795 143.555 606.955 144.867 606.955 146.848C606.955 148.828 605.795 150.129 604.072 150.129ZM604.072 149.238C605.35 149.238 605.947 148.113 605.947 146.848C605.947 145.582 605.35 144.445 604.072 144.445C602.771 144.445 602.174 145.582 602.174 146.848C602.174 148.113 602.771 149.238 604.072 149.238ZM610.881 150.129C609.076 150.129 607.975 148.758 607.975 146.848C607.975 144.914 609.123 143.555 610.857 143.555C612.217 143.555 613.225 144.352 613.389 145.559H612.381C612.24 144.973 611.725 144.445 610.881 144.445C609.744 144.445 608.982 145.383 608.982 146.812C608.982 148.289 609.721 149.227 610.881 149.227C611.631 149.227 612.205 148.828 612.381 148.125H613.389C613.225 149.262 612.299 150.129 610.881 150.129ZM614.631 150V141.516H615.639V146.449H615.756L618.51 143.637H619.752L617.068 146.355L619.951 150H618.674L616.318 147L615.639 147.621V150H614.631ZM624.486 152.391C624.264 152.391 624.053 152.379 623.924 152.367V151.465C624.029 151.477 624.264 151.488 624.416 151.488C624.826 151.488 625.166 151.453 625.506 150.527L625.693 150.047L623.338 143.637H624.439L626.174 148.688H626.244L627.979 143.637H629.08L626.385 150.914C626.01 151.91 625.389 152.391 624.486 152.391ZM632.561 150.129C630.826 150.129 629.654 148.828 629.654 146.848C629.654 144.867 630.826 143.555 632.561 143.555C634.283 143.555 635.443 144.867 635.443 146.848C635.443 148.828 634.283 150.129 632.561 150.129ZM632.561 149.238C633.838 149.238 634.436 148.113 634.436 146.848C634.436 145.582 633.838 144.445 632.561 144.445C631.26 144.445 630.662 145.582 630.662 146.848C630.662 148.113 631.26 149.238 632.561 149.238ZM640.787 147.387V143.637H641.783V150H640.787V148.922H640.717C640.412 149.566 639.791 150.082 638.83 150.082C637.623 150.082 636.768 149.297 636.768 147.68V143.637H637.775V147.609C637.775 148.523 638.35 149.109 639.158 149.109C639.873 149.109 640.787 148.57 640.787 147.387ZM643.4 150V143.637H644.373V144.609H644.443C644.678 143.965 645.334 143.531 646.084 143.531C646.236 143.531 646.494 143.543 646.611 143.555V144.574C646.541 144.551 646.26 144.504 646.002 144.504C645.088 144.504 644.408 145.137 644.408 145.992V150H643.4ZM650.607 152.391V143.637H651.58V144.645H651.697C651.908 144.305 652.307 143.555 653.537 143.555C655.131 143.555 656.244 144.82 656.244 146.836C656.244 148.852 655.131 150.129 653.549 150.129C652.33 150.129 651.908 149.379 651.697 149.027H651.615V152.391H650.607ZM651.592 146.812C651.592 148.242 652.236 149.227 653.408 149.227C654.615 149.227 655.236 148.172 655.236 146.812C655.236 145.488 654.627 144.457 653.408 144.457C652.213 144.457 651.592 145.406 651.592 146.812ZM660.158 150.129C658.424 150.129 657.252 148.828 657.252 146.848C657.252 144.867 658.424 143.555 660.158 143.555C661.881 143.555 663.041 144.867 663.041 146.848C663.041 148.828 661.881 150.129 660.158 150.129ZM660.158 149.238C661.436 149.238 662.033 148.113 662.033 146.848C662.033 145.582 661.436 144.445 660.158 144.445C658.857 144.445 658.26 145.582 658.26 146.848C658.26 148.113 658.857 149.238 660.158 149.238ZM667.143 143.637V144.48H665.807V148.172C665.807 148.992 666.205 149.121 666.639 149.121C666.826 149.121 667.084 149.109 667.236 149.098V150.035C667.084 150.059 666.826 150.082 666.533 150.082C665.689 150.082 664.787 149.555 664.787 148.43V144.48H663.826V143.637H664.787V142.113H665.807V143.637H667.143ZM671.045 150.129C669.205 150.129 668.068 148.828 668.068 146.871C668.068 144.914 669.217 143.555 670.951 143.555C672.287 143.555 673.693 144.375 673.693 146.73V147.152H669.076C669.123 148.5 669.908 149.238 671.045 149.238C671.807 149.238 672.287 148.91 672.521 148.512H673.6C673.295 149.473 672.357 150.129 671.045 150.129ZM669.088 146.297H672.674C672.674 145.23 671.994 144.445 670.951 144.445C669.85 144.445 669.146 145.312 669.088 146.297ZM676.014 146.18V150H675.006V143.637H675.979V144.633H676.061C676.365 143.988 676.951 143.555 677.924 143.555C679.213 143.555 680.068 144.34 680.068 145.957V150H679.061V146.027C679.061 145.043 678.521 144.457 677.619 144.457C676.693 144.457 676.014 145.078 676.014 146.18ZM684.463 143.637V144.48H683.127V148.172C683.127 148.992 683.525 149.121 683.959 149.121C684.146 149.121 684.404 149.109 684.557 149.098V150.035C684.404 150.059 684.146 150.082 683.854 150.082C683.01 150.082 682.107 149.555 682.107 148.43V144.48H681.146V143.637H682.107V142.113H683.127V143.637H684.463ZM685.764 150V143.637H686.771V150H685.764ZM686.268 142.582C685.881 142.582 685.564 142.289 685.564 141.914C685.564 141.539 685.881 141.246 686.268 141.246C686.654 141.246 686.982 141.539 686.982 141.914C686.982 142.289 686.654 142.582 686.268 142.582ZM688.072 148.195C688.072 146.73 689.361 146.402 690.463 146.32C690.867 146.291 691.898 146.238 692.186 146.227V145.711C692.186 144.902 691.705 144.434 690.744 144.434C689.936 144.434 689.455 144.809 689.314 145.289H688.26C688.389 144.27 689.385 143.555 690.791 143.555C691.623 143.555 693.182 143.801 693.182 145.805V150H692.186V149.133H692.139C691.928 149.566 691.342 150.152 690.24 150.152C689.033 150.152 688.072 149.438 688.072 148.195ZM689.08 148.242C689.08 148.91 689.643 149.25 690.416 149.25C691.553 149.25 692.186 148.488 692.186 147.691V147.047L690.58 147.164C689.666 147.223 689.08 147.551 689.08 148.242ZM695.807 141.516V150H694.799V141.516H695.807Z" fill="black"/>
</svg>
