<svg width="16" height="18" viewBox="0 0 16 18" fill="none" xmlns="http://www.w3.org/2000/svg">
<path d="M14.9945 9.70919V14.6908C14.9566 15.9881 11.8376 17 7.99872 17C4.15987 17 1.04081 15.9708 1.00293 14.6908V9.70919M3.89469 1.58811C4.18934 2.28432 4.79968 3.16216 4.77864 3.67243C4.78529 3.79368 4.76702 3.915 4.72501 4.02852C4.68301 4.14203 4.6182 4.24518 4.53481 4.33125C4.45143 4.41732 4.35133 4.48439 4.24104 4.52809C4.13075 4.57178 4.01274 4.59113 3.89469 4.58486C3.77664 4.59113 3.65863 4.57178 3.54834 4.52809C3.43805 4.48439 3.33796 4.41732 3.25457 4.33125C3.17118 4.24518 3.10638 4.14203 3.06437 4.02852C3.02236 3.915 3.00409 3.79368 3.01075 3.67243C2.9897 3.16216 3.60004 2.28432 3.8989 1.58811H3.89469ZM7.99872 1C8.29758 1.69622 8.90792 2.57405 8.88687 3.08432C8.8942 3.2063 8.87629 3.3285 8.8343 3.44284C8.79232 3.55719 8.72722 3.6611 8.64331 3.74772C8.55939 3.83434 8.45855 3.90171 8.34745 3.94538C8.23634 3.98905 8.11749 4.00803 7.99872 4.00108C7.88093 4.00407 7.76379 3.98237 7.65444 3.9373C7.54509 3.89223 7.44583 3.82474 7.36271 3.73895C7.2796 3.65316 7.21437 3.55086 7.17102 3.43831C7.12767 3.32576 7.1071 3.20531 7.11057 3.08432C7.11057 2.57405 7.69986 1.69622 7.99872 1ZM12.0733 1.58378C12.3721 2.28 12.9783 3.15784 12.9614 3.66811C12.9655 3.78926 12.9454 3.90999 12.9022 4.02282C12.8591 4.13566 12.7939 4.23821 12.7107 4.32413C12.6274 4.41005 12.5279 4.47752 12.4183 4.52237C12.3086 4.56722 12.1912 4.58849 12.0733 4.58486C11.9553 4.58849 11.8379 4.56722 11.7283 4.52237C11.6187 4.47752 11.5192 4.41005 11.4359 4.32413C11.3527 4.23821 11.2875 4.13566 11.2443 4.02282C11.2012 3.90999 11.181 3.78926 11.1851 3.66811C11.1851 3.15784 11.7744 2.28 12.0733 1.58378Z" stroke="#C6C6C6" stroke-linecap="round" stroke-linejoin="round"/>
<path d="M15 9.73083C14.9579 11.0108 11.8388 12.027 8 12.027C4.16115 12.027 1.04209 11.0108 1.00421 9.73083V9.70921M1 9.70489C1.03788 8.40759 4.15694 7.3957 7.99579 7.3957C11.8346 7.3957 14.9537 8.42489 14.9916 9.70489V9.72651M7.98737 4.86597V8.27786M3.89597 5.44975V9.00002M12.0746 5.44975V9.00002" stroke="#C6C6C6" stroke-linecap="round" stroke-linejoin="round"/>
</svg>
