<svg width="17" height="17" viewBox="0 0 16 16" fill="none" xmlns="http://www.w3.org/2000/svg">
<path d="M8.58008 16H16.0801M11.0801 2.85849L13.5801 5.48679M12.3301 1.54434C12.6616 1.1958 13.1112 1 13.5801 1C13.8122 1 14.0421 1.04807 14.2566 1.14147C14.471 1.23487 14.6659 1.37176 14.8301 1.54434C14.9942 1.71692 15.1244 1.92179 15.2133 2.14728C15.3021 2.37276 15.3478 2.61443 15.3478 2.85849C15.3478 3.10255 15.3021 3.34422 15.2133 3.5697C15.1244 3.79519 14.9942 4.00006 14.8301 4.17264L4.41341 15.1239L1.08008 16L1.91341 12.4956L12.3301 1.54434Z" stroke="black" stroke-linecap="round" stroke-linejoin="round"/>
</svg>
