<svg width="12" height="12" viewBox="0 0 12 12" fill="none" xmlns="http://www.w3.org/2000/svg">
<path d="M6.08008 11H11.0801M7.74675 2.23899L9.41341 3.99119M8.58008 1.36289C8.80109 1.13054 9.10085 1 9.41341 1C9.56818 1 9.72143 1.03205 9.86441 1.09431C10.0074 1.15658 10.1373 1.24784 10.2467 1.36289C10.3562 1.47794 10.443 1.61453 10.5022 1.76485C10.5614 1.91517 10.5919 2.07629 10.5919 2.23899C10.5919 2.4017 10.5614 2.56281 10.5022 2.71314C10.443 2.86346 10.3562 3.00004 10.2467 3.11509L3.3023 10.4159L1.08008 11L1.63563 8.66373L8.58008 1.36289Z" stroke="#2A6AFF" stroke-width="0.7" stroke-linecap="round" stroke-linejoin="round"/>
</svg>
