<svg width="66" height="68" viewBox="0 0 100% 100%" fill="none" xmlns="http://www.w3.org/2000/svg">
<g filter="url(#filter0_d_350_128)">
<ellipse cx="29.1741" cy="32.7301" rx="20.8636" ry="20.4808" transform="rotate(-90 29.1741 32.7301)" fill="black"/>
<path fill-rule="evenodd" clip-rule="evenodd" d="M0.5 31.34C0.5 48.2395 13.949 61.94 30.5385 61.94C47.1279 61.94 60.5769 48.2395 60.5769 31.34C60.5769 14.4405 47.1279 0.740002 30.5385 0.740002C13.949 0.740002 0.5 14.4405 0.5 31.34ZM36.5653 40.5005C37.0627 41.0252 37.3379 41.7279 37.3317 42.4573C37.3255 43.1866 37.0383 43.8844 36.532 44.4001C36.0257 44.9159 35.3408 45.2085 34.6248 45.2148C33.9088 45.2211 33.219 44.9408 32.704 44.434L21.7809 33.3067C21.2689 32.7851 20.9814 32.0776 20.9814 31.34C20.9814 30.6024 21.2689 29.8949 21.7809 29.3733L32.704 18.246C33.219 17.7393 33.9088 17.4589 34.6248 17.4652C35.3408 17.4715 36.0257 17.7641 36.532 18.2799C37.0383 18.7956 37.3255 19.4934 37.3317 20.2227C37.3379 20.9521 37.0627 21.6548 36.5653 22.1795L27.5728 31.34L36.5653 40.5005Z" fill="white"/>
</g>
<defs>
<filter id="filter0_d_350_128" x="0.5" y="0.740002" width="65.0771" height="67.2" filterUnits="userSpaceOnUse" color-interpolation-filters="sRGB">
<feFlood flood-opacity="0" result="BackgroundImageFix"/>
<feColorMatrix in="SourceAlpha" type="matrix" values="0 0 0 0 0 0 0 0 0 0 0 0 0 0 0 0 0 0 127 0" result="hardAlpha"/>
<feOffset dx="3" dy="4"/>
<feGaussianBlur stdDeviation="1"/>
<feComposite in2="hardAlpha" operator="out"/>
<feColorMatrix type="matrix" values="0 0 0 0 0.752941 0 0 0 0 0.752941 0 0 0 0 0.752941 0 0 0 0.25 0"/>
<feBlend mode="normal" in2="BackgroundImageFix" result="effect1_dropShadow_350_128"/>
<feBlend mode="normal" in="SourceGraphic" in2="effect1_dropShadow_350_128" result="shape"/>
</filter>
</defs>
</svg>
