<svg width="20" height="17" viewBox="0 0 20 17" fill="none" xmlns="http://www.w3.org/2000/svg">
<path d="M17.5005 9.6693L11.5254 15.4063C11.1292 15.7864 10.592 16 10.0318 16C9.47169 16 8.93447 15.7864 8.53832 15.4063L2.56321 9.67031C2.06928 9.20029 1.67693 8.64124 1.40867 8.02527C1.14041 7.40929 1.00154 6.74852 1.00001 6.08088C0.99849 5.41324 1.13435 4.75188 1.3998 4.13479C1.66524 3.51769 2.05504 2.957 2.54682 2.4849C3.0386 2.01281 3.62267 1.63861 4.2655 1.38379C4.90833 1.12897 5.59726 0.99855 6.29273 1.00001C6.98821 1.00147 7.67654 1.13479 8.3182 1.39231C8.95986 1.64983 9.54222 2.02648 10.0318 2.50064C11.0264 1.5697 12.3629 1.05237 13.7519 1.06072C15.141 1.06908 16.4706 1.60244 17.4529 2.54527C18.4352 3.48811 18.991 4.76449 18.9999 6.09792C19.0088 7.43135 18.4701 8.71446 17.5005 9.6693Z" stroke="black" stroke-width="1.5" stroke-linecap="round" stroke-linejoin="round"/>
</svg>
