<svg width="18" height="18" viewBox="0 0 18 18" fill="none" xmlns="http://www.w3.org/2000/svg">
<path d="M9 17C13.4183 17 17 13.4183 17 9C17 4.58172 13.4183 1 9 1C4.58172 1 1 4.58172 1 9C1 13.4183 4.58172 17 9 17Z" stroke="#C6C6C6" stroke-linecap="round" stroke-linejoin="round"/>
<path d="M6.11087 1.53723L6.86807 2.13816L8.4558 2.44328L8.19942 3.27528L7.29821 3.58709L6.47291 4.91844L5.1278 5.75044L3.24203 6.00011L3.20035 6.74877L3.80352 7.40067L3.76184 8.50319L2.08407 7.359L1.59961 5.9536" stroke="#C6C6C6" stroke-linecap="round" stroke-linejoin="round"/>
<path d="M15.523 13.6333L14.6907 13.0681L14.15 11.9697L13.1029 10.1245L13.0683 8.91814L12.2572 8.40056L11.0992 8.33656L9.19224 7.50716L8.8875 5.67423L9.70536 4.80763H11.3835L11.9867 5.57712L14.3439 5.75758L16.0019 5.12614M14.8313 3.52279L13.9625 4.06568L12.5898 3.816L11.7508 3.41414L10.6415 3.75386L9.83708 3.52503L10.371 2.34623L11.3348 2.39461L12.4975 1.80298M7.63875 16.8843L9.17177 16.0605L10.6047 15.9634L11.6306 15.6999L12.8581 16.0102M3.20898 9.07144L4.57494 7.67126L5.13643 8.66958L7.02926 8.8013L7.91671 10.1464H9.04675L8.73494 11.5537L7.66703 12.5591L7.65326 13.3702L6.53698 14.2164L6.57159 15.6169L5.63577 15.2701L5.16396 13.9321L5.1848 11.1864L3.7634 10.9297L3.20898 9.8413V9.07144Z" stroke="#C6C6C6" stroke-linecap="round" stroke-linejoin="round"/>
</svg>
