<svg width="89" height="17" viewBox="0 0 89 17" fill="none" xmlns="http://www.w3.org/2000/svg">
<path d="M7.49053 0.482987C7.76754 -0.160914 8.5679 -0.160915 8.84491 0.482986L10.6553 4.69119C10.7653 4.94688 10.9779 5.12411 11.2239 5.16511L15.272 5.83993C15.8914 5.94318 16.1388 6.81643 15.6905 7.31763L12.7613 10.5933C12.5833 10.7923 12.5021 11.0791 12.5441 11.3601L13.2356 15.9853C13.3414 16.6931 12.6939 17.2328 12.1399 16.8986L8.51913 14.7149C8.29913 14.5822 8.03631 14.5822 7.81631 14.7149L4.19555 16.8986C3.64153 17.2328 2.99402 16.6931 3.09983 15.9853L3.79133 11.3601C3.83335 11.0791 3.75213 10.7923 3.57415 10.5933L0.644894 7.31764C0.196687 6.81643 0.444012 5.94318 1.06342 5.83993L5.11155 5.16511C5.35752 5.12411 5.57015 4.94688 5.68015 4.69119L7.49053 0.482987ZM25.6147 0.482987C25.8917 -0.160914 26.6921 -0.160915 26.9691 0.482986L28.7794 4.69119C28.8894 4.94688 29.1021 5.12411 29.348 5.16511L33.3962 5.83993C34.0156 5.94318 34.2629 6.81643 33.8147 7.31763L30.8854 10.5933C30.7075 10.7923 30.6262 11.0791 30.6683 11.3601L31.3598 15.9853C31.4656 16.6931 30.8181 17.2328 30.264 16.8986L26.6433 14.7149C26.4233 14.5822 26.1605 14.5822 25.9405 14.7149L22.3197 16.8986C21.7657 17.2328 21.1182 16.6931 21.224 15.9853L21.9155 11.3601C21.9575 11.0791 21.8763 10.7923 21.6983 10.5933L18.769 7.31764C18.3208 6.81643 18.5682 5.94318 19.1876 5.83993L23.2357 5.16511C23.4817 5.12411 23.6943 4.94688 23.8043 4.69119L25.6147 0.482987ZM43.7388 0.482987C44.0158 -0.160914 44.8162 -0.160915 45.0932 0.482986L46.9036 4.69119C47.0136 4.94688 47.2262 5.12411 47.4722 5.16511L51.5203 5.83993C52.1397 5.94318 52.3871 6.81643 51.9388 7.31763L49.0096 10.5933C48.8316 10.7923 48.7504 11.0791 48.7924 11.3601L49.4839 15.9853C49.5897 16.6931 48.9422 17.2328 48.3882 16.8986L44.7674 14.7149C44.5474 14.5822 44.2846 14.5822 44.0646 14.7149L40.4438 16.8986C39.8898 17.2328 39.2423 16.6931 39.3481 15.9853L40.0396 11.3601C40.0816 11.0791 40.0004 10.7923 39.8224 10.5933L36.8932 7.31764C36.445 6.81643 36.6923 5.94318 37.3117 5.83993L41.3598 5.16511C41.6058 5.12411 41.8184 4.94688 41.9284 4.69119L43.7388 0.482987ZM61.863 0.482987C62.14 -0.160914 62.9403 -0.160915 63.2174 0.482986L65.0277 4.69119C65.1377 4.94688 65.3504 5.12411 65.5963 5.16511L69.6445 5.83993C70.2639 5.94318 70.5112 6.81643 70.063 7.31763L67.1337 10.5933C66.9557 10.7923 66.8745 11.0791 66.9165 11.3601L67.6081 15.9853C67.7139 16.6931 67.0664 17.2328 66.5123 16.8986L62.8916 14.7149C62.6716 14.5822 62.4088 14.5822 62.1888 14.7149L58.568 16.8986C58.014 17.2328 57.3665 16.6931 57.4723 15.9853L58.1638 11.3601C58.2058 11.0791 58.1246 10.7923 57.9466 10.5933L55.0173 7.31764C54.5691 6.81643 54.8165 5.94318 55.4359 5.83993L59.484 5.16511C59.73 5.12411 59.9426 4.94688 60.0526 4.69119L61.863 0.482987ZM79.9871 0.482987C80.2641 -0.160914 81.0645 -0.160915 81.3415 0.482986L83.1519 4.69119C83.2619 4.94688 83.4745 5.12411 83.7205 5.16511L87.7686 5.83993C88.388 5.94318 88.6354 6.81643 88.1871 7.31763L85.2579 10.5933C85.0799 10.7923 84.9987 11.0791 85.0407 11.3601L85.7322 15.9853C85.838 16.6931 85.1905 17.2328 84.6365 16.8986L81.0157 14.7149C80.7957 14.5822 80.5329 14.5822 80.3129 14.7149L76.6921 16.8986C76.1381 17.2328 75.4906 16.6931 75.5964 15.9853L76.2879 11.3601C76.3299 11.0791 76.2487 10.7923 76.0707 10.5933L73.1415 7.31764C72.6933 6.81643 72.9406 5.94318 73.56 5.83993L77.6081 5.16511C77.8541 5.12411 78.0667 4.94688 78.1767 4.69119L79.9871 0.482987Z" fill="#FFC700"/>
<path d="M7.49053 0.482987C7.76754 -0.160914 8.5679 -0.160915 8.84491 0.482986L10.6553 4.69119C10.7653 4.94688 10.9779 5.12411 11.2239 5.16511L15.272 5.83993C15.8914 5.94318 16.1388 6.81643 15.6905 7.31763L12.7613 10.5933C12.5833 10.7923 12.5021 11.0791 12.5441 11.3601L13.2356 15.9853C13.3414 16.6931 12.6939 17.2328 12.1399 16.8986L8.51913 14.7149C8.29913 14.5822 8.03631 14.5822 7.81631 14.7149L4.19555 16.8986C3.64153 17.2328 2.99402 16.6931 3.09983 15.9853L3.79133 11.3601C3.83335 11.0791 3.75213 10.7923 3.57415 10.5933L0.644894 7.31764C0.196687 6.81643 0.444012 5.94318 1.06342 5.83993L5.11155 5.16511C5.35752 5.12411 5.57015 4.94688 5.68015 4.69119L7.49053 0.482987ZM25.6147 0.482987C25.8917 -0.160914 26.6921 -0.160915 26.9691 0.482986L28.7794 4.69119C28.8894 4.94688 29.1021 5.12411 29.348 5.16511L33.3962 5.83993C34.0156 5.94318 34.2629 6.81643 33.8147 7.31763L30.8854 10.5933C30.7075 10.7923 30.6262 11.0791 30.6683 11.3601L31.3598 15.9853C31.4656 16.6931 30.8181 17.2328 30.264 16.8986L26.6433 14.7149C26.4233 14.5822 26.1605 14.5822 25.9405 14.7149L22.3197 16.8986C21.7657 17.2328 21.1182 16.6931 21.224 15.9853L21.9155 11.3601C21.9575 11.0791 21.8763 10.7923 21.6983 10.5933L18.769 7.31764C18.3208 6.81643 18.5682 5.94318 19.1876 5.83993L23.2357 5.16511C23.4817 5.12411 23.6943 4.94688 23.8043 4.69119L25.6147 0.482987ZM43.7388 0.482987C44.0158 -0.160914 44.8162 -0.160915 45.0932 0.482986L46.9036 4.69119C47.0136 4.94688 47.2262 5.12411 47.4722 5.16511L51.5203 5.83993C52.1397 5.94318 52.3871 6.81643 51.9388 7.31763L49.0096 10.5933C48.8316 10.7923 48.7504 11.0791 48.7924 11.3601L49.4839 15.9853C49.5897 16.6931 48.9422 17.2328 48.3882 16.8986L44.7674 14.7149C44.5474 14.5822 44.2846 14.5822 44.0646 14.7149L40.4438 16.8986C39.8898 17.2328 39.2423 16.6931 39.3481 15.9853L40.0396 11.3601C40.0816 11.0791 40.0004 10.7923 39.8224 10.5933L36.8932 7.31764C36.445 6.81643 36.6923 5.94318 37.3117 5.83993L41.3598 5.16511C41.6058 5.12411 41.8184 4.94688 41.9284 4.69119L43.7388 0.482987ZM61.863 0.482987C62.14 -0.160914 62.9403 -0.160915 63.2174 0.482986L65.0277 4.69119C65.1377 4.94688 65.3504 5.12411 65.5963 5.16511L69.6445 5.83993C70.2639 5.94318 70.5112 6.81643 70.063 7.31763L67.1337 10.5933C66.9557 10.7923 66.8745 11.0791 66.9165 11.3601L67.6081 15.9853C67.7139 16.6931 67.0664 17.2328 66.5123 16.8986L62.8916 14.7149C62.6716 14.5822 62.4088 14.5822 62.1888 14.7149L58.568 16.8986C58.014 17.2328 57.3665 16.6931 57.4723 15.9853L58.1638 11.3601C58.2058 11.0791 58.1246 10.7923 57.9466 10.5933L55.0173 7.31764C54.5691 6.81643 54.8165 5.94318 55.4359 5.83993L59.484 5.16511C59.73 5.12411 59.9426 4.94688 60.0526 4.69119L61.863 0.482987ZM79.9871 0.482987C80.2641 -0.160914 81.0645 -0.160915 81.3415 0.482986L83.1519 4.69119C83.2619 4.94688 83.4745 5.12411 83.7205 5.16511L87.7686 5.83993C88.388 5.94318 88.6354 6.81643 88.1871 7.31763L85.2579 10.5933C85.0799 10.7923 84.9987 11.0791 85.0407 11.3601L85.7322 15.9853C85.838 16.6931 85.1905 17.2328 84.6365 16.8986L81.0157 14.7149C80.7957 14.5822 80.5329 14.5822 80.3129 14.7149L76.6921 16.8986C76.1381 17.2328 75.4906 16.6931 75.5964 15.9853L76.2879 11.3601C76.3299 11.0791 76.2487 10.7923 76.0707 10.5933L73.1415 7.31764C72.6933 6.81643 72.9406 5.94318 73.56 5.83993L77.6081 5.16511C77.8541 5.12411 78.0667 4.94688 78.1767 4.69119L79.9871 0.482987Z" fill="#FFC700"/>
<path d="M7.49053 0.482987C7.76754 -0.160914 8.5679 -0.160915 8.84491 0.482986L10.6553 4.69119C10.7653 4.94688 10.9779 5.12411 11.2239 5.16511L15.272 5.83993C15.8914 5.94318 16.1388 6.81643 15.6905 7.31763L12.7613 10.5933C12.5833 10.7923 12.5021 11.0791 12.5441 11.3601L13.2356 15.9853C13.3414 16.6931 12.6939 17.2328 12.1399 16.8986L8.51913 14.7149C8.29913 14.5822 8.03631 14.5822 7.81631 14.7149L4.19555 16.8986C3.64153 17.2328 2.99402 16.6931 3.09983 15.9853L3.79133 11.3601C3.83335 11.0791 3.75213 10.7923 3.57415 10.5933L0.644894 7.31764C0.196687 6.81643 0.444012 5.94318 1.06342 5.83993L5.11155 5.16511C5.35752 5.12411 5.57015 4.94688 5.68015 4.69119L7.49053 0.482987ZM25.6147 0.482987C25.8917 -0.160914 26.6921 -0.160915 26.9691 0.482986L28.7794 4.69119C28.8894 4.94688 29.1021 5.12411 29.348 5.16511L33.3962 5.83993C34.0156 5.94318 34.2629 6.81643 33.8147 7.31763L30.8854 10.5933C30.7075 10.7923 30.6262 11.0791 30.6683 11.3601L31.3598 15.9853C31.4656 16.6931 30.8181 17.2328 30.264 16.8986L26.6433 14.7149C26.4233 14.5822 26.1605 14.5822 25.9405 14.7149L22.3197 16.8986C21.7657 17.2328 21.1182 16.6931 21.224 15.9853L21.9155 11.3601C21.9575 11.0791 21.8763 10.7923 21.6983 10.5933L18.769 7.31764C18.3208 6.81643 18.5682 5.94318 19.1876 5.83993L23.2357 5.16511C23.4817 5.12411 23.6943 4.94688 23.8043 4.69119L25.6147 0.482987ZM43.7388 0.482987C44.0158 -0.160914 44.8162 -0.160915 45.0932 0.482986L46.9036 4.69119C47.0136 4.94688 47.2262 5.12411 47.4722 5.16511L51.5203 5.83993C52.1397 5.94318 52.3871 6.81643 51.9388 7.31763L49.0096 10.5933C48.8316 10.7923 48.7504 11.0791 48.7924 11.3601L49.4839 15.9853C49.5897 16.6931 48.9422 17.2328 48.3882 16.8986L44.7674 14.7149C44.5474 14.5822 44.2846 14.5822 44.0646 14.7149L40.4438 16.8986C39.8898 17.2328 39.2423 16.6931 39.3481 15.9853L40.0396 11.3601C40.0816 11.0791 40.0004 10.7923 39.8224 10.5933L36.8932 7.31764C36.445 6.81643 36.6923 5.94318 37.3117 5.83993L41.3598 5.16511C41.6058 5.12411 41.8184 4.94688 41.9284 4.69119L43.7388 0.482987ZM61.863 0.482987C62.14 -0.160914 62.9403 -0.160915 63.2174 0.482986L65.0277 4.69119C65.1377 4.94688 65.3504 5.12411 65.5963 5.16511L69.6445 5.83993C70.2639 5.94318 70.5112 6.81643 70.063 7.31763L67.1337 10.5933C66.9557 10.7923 66.8745 11.0791 66.9165 11.3601L67.6081 15.9853C67.7139 16.6931 67.0664 17.2328 66.5123 16.8986L62.8916 14.7149C62.6716 14.5822 62.4088 14.5822 62.1888 14.7149L58.568 16.8986C58.014 17.2328 57.3665 16.6931 57.4723 15.9853L58.1638 11.3601C58.2058 11.0791 58.1246 10.7923 57.9466 10.5933L55.0173 7.31764C54.5691 6.81643 54.8165 5.94318 55.4359 5.83993L59.484 5.16511C59.73 5.12411 59.9426 4.94688 60.0526 4.69119L61.863 0.482987ZM79.9871 0.482987C80.2641 -0.160914 81.0645 -0.160915 81.3415 0.482986L83.1519 4.69119C83.2619 4.94688 83.4745 5.12411 83.7205 5.16511L87.7686 5.83993C88.388 5.94318 88.6354 6.81643 88.1871 7.31763L85.2579 10.5933C85.0799 10.7923 84.9987 11.0791 85.0407 11.3601L85.7322 15.9853C85.838 16.6931 85.1905 17.2328 84.6365 16.8986L81.0157 14.7149C80.7957 14.5822 80.5329 14.5822 80.3129 14.7149L76.6921 16.8986C76.1381 17.2328 75.4906 16.6931 75.5964 15.9853L76.2879 11.3601C76.3299 11.0791 76.2487 10.7923 76.0707 10.5933L73.1415 7.31764C72.6933 6.81643 72.9406 5.94318 73.56 5.83993L77.6081 5.16511C77.8541 5.12411 78.0667 4.94688 78.1767 4.69119L79.9871 0.482987Z" fill="#FFC700"/>
<path d="M7.49053 0.482987C7.76754 -0.160914 8.5679 -0.160915 8.84491 0.482986L10.6553 4.69119C10.7653 4.94688 10.9779 5.12411 11.2239 5.16511L15.272 5.83993C15.8914 5.94318 16.1388 6.81643 15.6905 7.31763L12.7613 10.5933C12.5833 10.7923 12.5021 11.0791 12.5441 11.3601L13.2356 15.9853C13.3414 16.6931 12.6939 17.2328 12.1399 16.8986L8.51913 14.7149C8.29913 14.5822 8.03631 14.5822 7.81631 14.7149L4.19555 16.8986C3.64153 17.2328 2.99402 16.6931 3.09983 15.9853L3.79133 11.3601C3.83335 11.0791 3.75213 10.7923 3.57415 10.5933L0.644894 7.31764C0.196687 6.81643 0.444012 5.94318 1.06342 5.83993L5.11155 5.16511C5.35752 5.12411 5.57015 4.94688 5.68015 4.69119L7.49053 0.482987ZM25.6147 0.482987C25.8917 -0.160914 26.6921 -0.160915 26.9691 0.482986L28.7794 4.69119C28.8894 4.94688 29.1021 5.12411 29.348 5.16511L33.3962 5.83993C34.0156 5.94318 34.2629 6.81643 33.8147 7.31763L30.8854 10.5933C30.7075 10.7923 30.6262 11.0791 30.6683 11.3601L31.3598 15.9853C31.4656 16.6931 30.8181 17.2328 30.264 16.8986L26.6433 14.7149C26.4233 14.5822 26.1605 14.5822 25.9405 14.7149L22.3197 16.8986C21.7657 17.2328 21.1182 16.6931 21.224 15.9853L21.9155 11.3601C21.9575 11.0791 21.8763 10.7923 21.6983 10.5933L18.769 7.31764C18.3208 6.81643 18.5682 5.94318 19.1876 5.83993L23.2357 5.16511C23.4817 5.12411 23.6943 4.94688 23.8043 4.69119L25.6147 0.482987ZM43.7388 0.482987C44.0158 -0.160914 44.8162 -0.160915 45.0932 0.482986L46.9036 4.69119C47.0136 4.94688 47.2262 5.12411 47.4722 5.16511L51.5203 5.83993C52.1397 5.94318 52.3871 6.81643 51.9388 7.31763L49.0096 10.5933C48.8316 10.7923 48.7504 11.0791 48.7924 11.3601L49.4839 15.9853C49.5897 16.6931 48.9422 17.2328 48.3882 16.8986L44.7674 14.7149C44.5474 14.5822 44.2846 14.5822 44.0646 14.7149L40.4438 16.8986C39.8898 17.2328 39.2423 16.6931 39.3481 15.9853L40.0396 11.3601C40.0816 11.0791 40.0004 10.7923 39.8224 10.5933L36.8932 7.31764C36.445 6.81643 36.6923 5.94318 37.3117 5.83993L41.3598 5.16511C41.6058 5.12411 41.8184 4.94688 41.9284 4.69119L43.7388 0.482987ZM61.863 0.482987C62.14 -0.160914 62.9403 -0.160915 63.2174 0.482986L65.0277 4.69119C65.1377 4.94688 65.3504 5.12411 65.5963 5.16511L69.6445 5.83993C70.2639 5.94318 70.5112 6.81643 70.063 7.31763L67.1337 10.5933C66.9557 10.7923 66.8745 11.0791 66.9165 11.3601L67.6081 15.9853C67.7139 16.6931 67.0664 17.2328 66.5123 16.8986L62.8916 14.7149C62.6716 14.5822 62.4088 14.5822 62.1888 14.7149L58.568 16.8986C58.014 17.2328 57.3665 16.6931 57.4723 15.9853L58.1638 11.3601C58.2058 11.0791 58.1246 10.7923 57.9466 10.5933L55.0173 7.31764C54.5691 6.81643 54.8165 5.94318 55.4359 5.83993L59.484 5.16511C59.73 5.12411 59.9426 4.94688 60.0526 4.69119L61.863 0.482987ZM79.9871 0.482987C80.2641 -0.160914 81.0645 -0.160915 81.3415 0.482986L83.1519 4.69119C83.2619 4.94688 83.4745 5.12411 83.7205 5.16511L87.7686 5.83993C88.388 5.94318 88.6354 6.81643 88.1871 7.31763L85.2579 10.5933C85.0799 10.7923 84.9987 11.0791 85.0407 11.3601L85.7322 15.9853C85.838 16.6931 85.1905 17.2328 84.6365 16.8986L81.0157 14.7149C80.7957 14.5822 80.5329 14.5822 80.3129 14.7149L76.6921 16.8986C76.1381 17.2328 75.4906 16.6931 75.5964 15.9853L76.2879 11.3601C76.3299 11.0791 76.2487 10.7923 76.0707 10.5933L73.1415 7.31764C72.6933 6.81643 72.9406 5.94318 73.56 5.83993L77.6081 5.16511C77.8541 5.12411 78.0667 4.94688 78.1767 4.69119L79.9871 0.482987Z" fill="#FFC700"/>
<path d="M7.49053 0.482987C7.76754 -0.160914 8.5679 -0.160915 8.84491 0.482986L10.6553 4.69119C10.7653 4.94688 10.9779 5.12411 11.2239 5.16511L15.272 5.83993C15.8914 5.94318 16.1388 6.81643 15.6905 7.31763L12.7613 10.5933C12.5833 10.7923 12.5021 11.0791 12.5441 11.3601L13.2356 15.9853C13.3414 16.6931 12.6939 17.2328 12.1399 16.8986L8.51913 14.7149C8.29913 14.5822 8.03631 14.5822 7.81631 14.7149L4.19555 16.8986C3.64153 17.2328 2.99402 16.6931 3.09983 15.9853L3.79133 11.3601C3.83335 11.0791 3.75213 10.7923 3.57415 10.5933L0.644894 7.31764C0.196687 6.81643 0.444012 5.94318 1.06342 5.83993L5.11155 5.16511C5.35752 5.12411 5.57015 4.94688 5.68015 4.69119L7.49053 0.482987ZM25.6147 0.482987C25.8917 -0.160914 26.6921 -0.160915 26.9691 0.482986L28.7794 4.69119C28.8894 4.94688 29.1021 5.12411 29.348 5.16511L33.3962 5.83993C34.0156 5.94318 34.2629 6.81643 33.8147 7.31763L30.8854 10.5933C30.7075 10.7923 30.6262 11.0791 30.6683 11.3601L31.3598 15.9853C31.4656 16.6931 30.8181 17.2328 30.264 16.8986L26.6433 14.7149C26.4233 14.5822 26.1605 14.5822 25.9405 14.7149L22.3197 16.8986C21.7657 17.2328 21.1182 16.6931 21.224 15.9853L21.9155 11.3601C21.9575 11.0791 21.8763 10.7923 21.6983 10.5933L18.769 7.31764C18.3208 6.81643 18.5682 5.94318 19.1876 5.83993L23.2357 5.16511C23.4817 5.12411 23.6943 4.94688 23.8043 4.69119L25.6147 0.482987ZM43.7388 0.482987C44.0158 -0.160914 44.8162 -0.160915 45.0932 0.482986L46.9036 4.69119C47.0136 4.94688 47.2262 5.12411 47.4722 5.16511L51.5203 5.83993C52.1397 5.94318 52.3871 6.81643 51.9388 7.31763L49.0096 10.5933C48.8316 10.7923 48.7504 11.0791 48.7924 11.3601L49.4839 15.9853C49.5897 16.6931 48.9422 17.2328 48.3882 16.8986L44.7674 14.7149C44.5474 14.5822 44.2846 14.5822 44.0646 14.7149L40.4438 16.8986C39.8898 17.2328 39.2423 16.6931 39.3481 15.9853L40.0396 11.3601C40.0816 11.0791 40.0004 10.7923 39.8224 10.5933L36.8932 7.31764C36.445 6.81643 36.6923 5.94318 37.3117 5.83993L41.3598 5.16511C41.6058 5.12411 41.8184 4.94688 41.9284 4.69119L43.7388 0.482987ZM61.863 0.482987C62.14 -0.160914 62.9403 -0.160915 63.2174 0.482986L65.0277 4.69119C65.1377 4.94688 65.3504 5.12411 65.5963 5.16511L69.6445 5.83993C70.2639 5.94318 70.5112 6.81643 70.063 7.31763L67.1337 10.5933C66.9557 10.7923 66.8745 11.0791 66.9165 11.3601L67.6081 15.9853C67.7139 16.6931 67.0664 17.2328 66.5123 16.8986L62.8916 14.7149C62.6716 14.5822 62.4088 14.5822 62.1888 14.7149L58.568 16.8986C58.014 17.2328 57.3665 16.6931 57.4723 15.9853L58.1638 11.3601C58.2058 11.0791 58.1246 10.7923 57.9466 10.5933L55.0173 7.31764C54.5691 6.81643 54.8165 5.94318 55.4359 5.83993L59.484 5.16511C59.73 5.12411 59.9426 4.94688 60.0526 4.69119L61.863 0.482987ZM79.9871 0.482987C80.2641 -0.160914 81.0645 -0.160915 81.3415 0.482986L83.1519 4.69119C83.2619 4.94688 83.4745 5.12411 83.7205 5.16511L87.7686 5.83993C88.388 5.94318 88.6354 6.81643 88.1871 7.31763L85.2579 10.5933C85.0799 10.7923 84.9987 11.0791 85.0407 11.3601L85.7322 15.9853C85.838 16.6931 85.1905 17.2328 84.6365 16.8986L81.0157 14.7149C80.7957 14.5822 80.5329 14.5822 80.3129 14.7149L76.6921 16.8986C76.1381 17.2328 75.4906 16.6931 75.5964 15.9853L76.2879 11.3601C76.3299 11.0791 76.2487 10.7923 76.0707 10.5933L73.1415 7.31764C72.6933 6.81643 72.9406 5.94318 73.56 5.83993L77.6081 5.16511C77.8541 5.12411 78.0667 4.94688 78.1767 4.69119L79.9871 0.482987Z" fill="#FFC700"/>
</svg>
