<svg width="66" height="68" viewBox="0 0 66 68" fill="none" xmlns="http://www.w3.org/2000/svg">
<g filter="url(#filter0_d_350_125)">
<ellipse cx="33.94" cy="30.9699" rx="20.8636" ry="20.4545" transform="rotate(90 33.94 30.9699)" fill="black"/>
<path fill-rule="evenodd" clip-rule="evenodd" d="M65.5762 31.34C65.5762 14.4404 52.1444 0.73999 35.5762 0.73999C19.008 0.73999 5.57617 14.4404 5.57617 31.34C5.57617 48.2395 19.008 61.94 35.5762 61.94C52.1444 61.94 65.5762 48.2395 65.5762 31.34ZM29.5571 22.1795C29.0603 21.6548 28.7854 20.9521 28.7916 20.2227C28.7978 19.4933 29.0846 18.7956 29.5903 18.2799C30.096 17.7641 30.78 17.4715 31.4951 17.4652C32.2102 17.4588 32.8991 17.7392 33.4134 18.246L44.3225 29.3732C44.8338 29.8949 45.121 30.6024 45.121 31.34C45.121 32.0776 44.8338 32.7851 44.3225 33.3067L33.4134 44.434C32.8991 44.9407 32.2102 45.2211 31.4951 45.2148C30.78 45.2085 30.096 44.9159 29.5903 44.4001C29.0846 43.8843 28.7978 43.1866 28.7916 42.4572C28.7854 41.7279 29.0603 41.0252 29.5571 40.5005L38.538 31.34L29.5571 22.1795Z" fill="white"/>
</g>
<defs>
<filter id="filter0_d_350_125" x="0.576172" y="0.73999" width="65" height="67.2" filterUnits="userSpaceOnUse" color-interpolation-filters="sRGB">
<feFlood flood-opacity="0" result="BackgroundImageFix"/>
<feColorMatrix in="SourceAlpha" type="matrix" values="0 0 0 0 0 0 0 0 0 0 0 0 0 0 0 0 0 0 127 0" result="hardAlpha"/>
<feOffset dx="-3" dy="4"/>
<feGaussianBlur stdDeviation="1"/>
<feComposite in2="hardAlpha" operator="out"/>
<feColorMatrix type="matrix" values="0 0 0 0 0.751807 0 0 0 0 0.751807 0 0 0 0 0.751807 0 0 0 0.25 0"/>
<feBlend mode="normal" in2="BackgroundImageFix" result="effect1_dropShadow_350_125"/>
<feBlend mode="normal" in="SourceGraphic" in2="effect1_dropShadow_350_125" result="shape"/>
</filter>
</defs>
</svg>
