<svg width="20" height="20" viewBox="0 0 20 20" fill="none" xmlns="http://www.w3.org/2000/svg">
<path fill-rule="evenodd" clip-rule="evenodd" d="M14.136 14.9973C12.8155 16.1215 11.1038 16.8 9.23366 16.8C5.0547 16.8 1.66699 13.4122 1.66699 9.23329C1.66699 5.05434 5.0547 1.66663 9.23366 1.66663C13.4126 1.66663 16.8003 5.05434 16.8003 9.23329C16.8003 11.0921 16.1301 12.7944 15.018 14.1116L18.65 17.7436L17.7662 18.6275L14.136 14.9973ZM15.5503 9.23329C15.5503 12.7219 12.7223 15.55 9.23366 15.55C5.74506 15.55 2.91699 12.7219 2.91699 9.23329C2.91699 5.74469 5.74506 2.91663 9.23366 2.91663C12.7223 2.91663 15.5503 5.74469 15.5503 9.23329Z" fill="black" fill-opacity="0.7"/>
</svg>
