<svg width="28" height="23" viewBox="0 0 28 23" fill="none" xmlns="http://www.w3.org/2000/svg">
<path d="M24.4276 13.0407L16.0415 21.0087C15.4855 21.5367 14.7315 21.8333 13.9453 21.8333C13.1591 21.8333 12.4051 21.5367 11.8491 21.0087L3.46302 13.0421C2.76979 12.3893 2.21912 11.6128 1.84261 10.7573C1.46611 9.90179 1.2712 8.98405 1.26906 8.05677C1.26692 7.1295 1.45761 6.21095 1.83016 5.35387C2.20271 4.49679 2.7498 3.71805 3.44002 3.06237C4.13023 2.40668 4.94998 1.88696 5.8522 1.53304C6.75441 1.17913 7.72133 0.997986 8.69744 1.00002C9.67355 1.00205 10.6396 1.18721 11.5402 1.54488C12.4408 1.90254 13.2581 2.42567 13.9453 3.08422C15.3411 1.79124 17.217 1.07274 19.1665 1.08434C21.116 1.09594 22.9822 1.83673 24.3609 3.14621C25.7395 4.4557 26.5196 6.22845 26.5321 8.08044C26.5445 9.93243 25.7885 11.7145 24.4276 13.0407Z" stroke="black" stroke-width="1.5" stroke-linecap="round" stroke-linejoin="round"/>
</svg>
