<svg width="21" height="21" viewBox="0 0 21 21" fill="none" xmlns="http://www.w3.org/2000/svg">
<path d="M9.00007 12.4172L20.0001 1.41724M9.00007 12.4172L12.5001 19.4172C12.5439 19.513 12.6144 19.5941 12.703 19.651C12.7917 19.7079 12.8948 19.7381 13.0001 19.7381C13.1054 19.7381 13.2085 19.7079 13.2971 19.651C13.3858 19.5941 13.4562 19.513 13.5001 19.4172L20.0001 1.41724M9.00007 12.4172L2.00007 8.91724C1.90433 8.87336 1.8232 8.80292 1.76632 8.71429C1.70944 8.62565 1.6792 8.52255 1.6792 8.41724C1.6792 8.31192 1.70944 8.20882 1.76632 8.12018C1.8232 8.03155 1.90433 7.96111 2.00007 7.91724L20.0001 1.41724" stroke="black" stroke-width="2" stroke-linecap="round" stroke-linejoin="round"/>
</svg>
